<?xml version="1.0" encoding="UTF-8" standalone="no"?>
<!DOCTYPE svg PUBLIC "-//W3C//DTD SVG 1.1//EN" "http://www.w3.org/Graphics/SVG/1.1/DTD/svg11.dtd">
<svg width="100%" height="100%" viewBox="0 0 100 36" version="1.1" xmlns="http://www.w3.org/2000/svg" xmlns:xlink="http://www.w3.org/1999/xlink" xml:space="preserve" xmlns:serif="http://www.serif.com/" style="fill-rule:evenodd;clip-rule:evenodd;stroke-linejoin:round;stroke-miterlimit:1.41421;">
    <g transform="matrix(0.0903412,0,0,0.0903412,-3.86278,-0.379433)">
        <g transform="matrix(1,0,0,1,314,0)">
            <g transform="matrix(1,0,0,1,100,0)">
                <path d="M57.468,302.66L43.092,294.36L203.242,16.98L217.618,25.28L57.468,302.66Z" style="fill:rgb(225,0,152);fill-rule:nonzero;"/>
            </g>
            <g transform="matrix(1,0,0,1,100,0)">
                <rect x="39.8" y="272.2" width="320.3" height="16.6" style="fill:rgb(225,0,152);fill-rule:nonzero;"/>
            </g>
            <g transform="matrix(1,0,0,1,100,0)">
                <path d="M206.348,374.026L46.138,281.526L54.438,267.15L214.648,359.65L206.348,374.026ZM345.522,132.947L185.312,40.447L193.612,26.071L353.822,118.571L345.522,132.947Z" style="fill:rgb(225,0,152);fill-rule:nonzero;"/>
            </g>
            <g transform="matrix(1,0,0,1,100,0)">
                <path d="M54.482,132.883L46.182,118.508L206.392,26.008L214.692,40.384L54.482,132.883Z" style="fill:rgb(225,0,152);fill-rule:nonzero;"/>
            </g>
            <g transform="matrix(1,0,0,1,100,0)">
                <path d="M342.568,302.663L182.418,25.283L196.794,16.983L356.944,294.363L342.568,302.663ZM52.5,107.5L69.1,107.5L69.1,292.5L52.5,292.5L52.5,107.5ZM330.9,107.5L347.5,107.5L347.5,292.5L330.9,292.5L330.9,107.5Z" style="fill:rgb(225,0,152);fill-rule:nonzero;"/>
            </g>
            <g transform="matrix(1,0,0,1,100,0)">
                <path d="M203.522,367L196.272,354.442L335.612,273.992L342.862,286.549L203.522,367Z" style="fill:rgb(225,0,152);fill-rule:nonzero;"/>
            </g>
            <g transform="matrix(1,0,0,1,100,0)">
                <path d="M369.5,297.9C359.9,314.6 338.5,320.3 321.8,310.7C305.1,301.1 299.4,279.7 309,263C318.6,246.3 340,240.6 356.7,250.2C373.5,259.9 379.2,281.2 369.5,297.9M90.9,137C81.3,153.7 59.9,159.4 43.2,149.8C26.5,140.2 20.8,118.8 30.4,102.1C40,85.4 61.4,79.7 78.1,89.3C94.8,99 100.5,120.3 90.9,137M30.5,297.9C20.9,281.2 26.6,259.9 43.3,250.2C60,240.6 81.3,246.3 91,263C100.6,279.7 94.9,301 78.2,310.7C61.4,320.3 40.1,314.6 30.5,297.9M309.1,137C299.5,120.3 305.2,99 321.9,89.3C338.6,79.7 359.9,85.4 369.6,102.1C379.2,118.8 373.5,140.1 356.8,149.8C340.1,159.4 318.7,153.7 309.1,137M200,395.8C180.7,395.8 165.1,380.2 165.1,360.9C165.1,341.6 180.7,326 200,326C219.3,326 234.9,341.6 234.9,360.9C234.9,380.1 219.3,395.8 200,395.8M200,74C180.7,74 165.1,58.4 165.1,39.1C165.1,19.8 180.7,4.2 200,4.2C219.3,4.2 234.9,19.8 234.9,39.1C234.9,58.4 219.3,74 200,74" style="fill:rgb(225,0,152);fill-rule:nonzero;"/>
            </g>
        </g>
        <g transform="matrix(33.4107,0,0,33.4107,-1413.76,-4030.38)">
            <text x="43.079px" y="129.723px" style="font-family:'ArialMT', 'Arial', sans-serif;font-size:12px;">Q(</text>
        </g>
        <g transform="matrix(-33.4107,0,0,33.4107,2600.12,-4029.38)">
            <text x="43.079px" y="129.723px" style="font-family:'ArialMT', 'Arial', sans-serif;font-size:12px;">{}(</text>
        </g>
    </g>
</svg>
